<?xml version="1.0" encoding="UTF-8" standalone="no"?>
<!-- Created with Inkscape (http://www.inkscape.org/) -->

<svg
   xmlns:dc="http://purl.org/dc/elements/1.1/"
   xmlns:cc="http://creativecommons.org/ns#"
   xmlns:rdf="http://www.w3.org/1999/02/22-rdf-syntax-ns#"
   xmlns:svg="http://www.w3.org/2000/svg"
   xmlns="http://www.w3.org/2000/svg"
   xmlns:sodipodi="http://sodipodi.sourceforge.net/DTD/sodipodi-0.dtd"
   xmlns:inkscape="http://www.inkscape.org/namespaces/inkscape"
   width="69.715355mm"
   height="69.715355mm"
   viewBox="0 0 247.02291 247.02291"
   id="svg2"
   version="1.1"
   inkscape:version="0.91 r13725"
   sodipodi:docname="logo.svg">
  <defs
     id="defs4" />
  <sodipodi:namedview
     id="base"
     pagecolor="#ffffff"
     bordercolor="#666666"
     borderopacity="1.0"
     inkscape:pageopacity="0.0"
     inkscape:pageshadow="2"
     inkscape:zoom="0.33043495"
     inkscape:cx="123.51145"
     inkscape:cy="123.51145"
     inkscape:document-units="px"
     inkscape:current-layer="layer1"
     showgrid="false"
     showguides="true"
     inkscape:guide-bbox="true"
     inkscape:window-width="1394"
     inkscape:window-height="855"
     inkscape:window-x="0"
     inkscape:window-y="1"
     inkscape:window-maximized="1"
     fit-margin-top="0"
     fit-margin-left="0"
     fit-margin-right="0"
     fit-margin-bottom="0" />
  <metadata
     id="metadata7">
    <rdf:RDF>
      <cc:Work
         rdf:about="">
        <dc:format>image/svg+xml</dc:format>
        <dc:type
           rdf:resource="http://purl.org/dc/dcmitype/StillImage" />
        <dc:title></dc:title>
      </cc:Work>
    </rdf:RDF>
  </metadata>
  <g
     inkscape:label="Layer 1"
     inkscape:groupmode="layer"
     id="layer1"
     transform="translate(346.8093,288.42487)">
    <rect
       style="color:#000000;display:inline;overflow:visible;visibility:visible;opacity:0.98000004;fill:#ffffff;fill-opacity:1;fill-rule:nonzero;stroke:#000000;stroke-width:2;stroke-linecap:round;stroke-linejoin:round;stroke-miterlimit:4;stroke-dasharray:none;stroke-dashoffset:0;stroke-opacity:1;marker:none;enable-background:accumulate"
       id="rect4148"
       width="245.0229"
       height="245.0229"
       x="-345.8093"
       y="-287.42487"
       ry="7.2784009" />
    <text
       sodipodi:linespacing="125%"
       id="text4140"
       y="-64.161652"
       x="-324.79321"
       style="font-style:normal;font-variant:normal;font-weight:normal;font-stretch:normal;font-size:41.02684402px;line-height:125%;font-family:'Times New Roman';-inkscape-font-specification:'Times New Roman';text-align:start;letter-spacing:0px;word-spacing:0px;writing-mode:lr-tb;text-anchor:start;fill:#000000;fill-opacity:1;stroke:none;stroke-width:1px;stroke-linecap:butt;stroke-linejoin:miter;stroke-opacity:1"
       xml:space="preserve"><tspan
         style="font-style:normal;font-variant:normal;font-weight:normal;font-stretch:normal;font-family:'Lucida Blackletter';-inkscape-font-specification:'Lucida Blackletter'"
         y="-64.161652"
         x="-324.79321"
         id="tspan4142"
         sodipodi:role="line">diachronica</tspan></text>
    <path
       style="fill:#000000"
       d="m -259.17564,-118.52369 c 0,-0.70499 3.30614,-1.28178 7.34696,-1.28178 6.39243,0 7.5527,-0.54112 8.9305,-4.16502 0.87095,-2.29076 1.58354,-11.08466 1.58354,-19.54201 0,-14.81422 -0.2377,-15.82565 -6.49491,-27.63571 -6.27239,-11.8387 -7.98401,-20.11062 -5.10164,-24.65512 0.9209,-1.45194 4.3609,-1.96273 10.9353,-1.62373 l 9.59174,0.49458 0.81187,5.70918 c 0.59735,4.20074 2.90741,7.63283 8.74312,12.98981 4.3622,4.00435 13.96046,16.43823 21.32948,27.63088 7.36902,11.19264 14.57743,21.32891 16.01872,22.52505 3.09497,2.56862 3.48873,5.58468 0.60351,4.62294 -1.10932,-0.36977 -2.77001,0.84803 -3.6904,2.70622 -1.98051,3.99841 -11.10373,5.45936 -14.82194,2.37352 -1.35092,-1.12116 -4.38373,-5.73775 -6.73963,-10.25908 -3.56569,-6.8432 -4.37959,-7.60848 -4.85744,-4.56726 -0.40626,2.58563 -1.68571,3.65339 -4.37768,3.65339 -3.17838,0 -3.98581,1.07814 -4.91171,6.5584 l -1.10802,6.55837 -16.89568,-0.40543 c -9.29263,-0.22298 -16.89569,-0.98222 -16.89569,-1.6872 z m 31.48895,-3.85015 c 0.54208,-1.41263 0.98559,-4.18862 0.98559,-6.16887 0,-3.14045 -0.70727,-3.5179 -5.53563,-2.95422 -5.33804,0.62318 -7.36202,3.25441 -7.43203,9.6618 -0.0338,3.08846 10.77671,2.60242 11.98207,-0.53871 z m 36.1436,0.0723 c 1.2618,-3.28822 -2.06941,-6.82457 -20.61077,-21.88001 -8.52043,-6.91852 -17.87788,-15.29685 -20.79434,-18.61851 -6.29657,-7.1714 -6.39989,-12.79011 -0.24781,-13.47766 3.72602,-0.4164 3.826,-0.26838 1.21779,1.80274 -1.56283,1.24102 -2.84152,2.9294 -2.84152,3.75195 0,2.81354 26.57998,26.86371 35.64602,32.25332 2.74434,1.63145 -4.44273,-11.26056 -12.22498,-21.92894 -2.93153,-4.01872 -9.40053,-11.30053 -14.37555,-16.18179 -6.68711,-6.56109 -9.04549,-10.0537 -9.04549,-13.39575 0,-4.34237 -0.32028,-4.52071 -8.11864,-4.52071 -8.08095,0 -8.11852,0.0245 -8.09927,5.2771 0.0114,3.0424 2.40812,9.40275 5.66022,15.01948 3.10247,5.35829 9.31118,16.86646 13.79712,25.57369 8.15233,15.82369 12.99784,20.16784 12.99784,11.65297 0,-7.26006 5.26002,-3.91539 11.04972,7.02611 4.74456,8.96636 5.92689,10.14207 10.19926,10.14207 2.84978,0 5.22556,-1.02411 5.7904,-2.49606 z m -55.33568,-62.70247 c -3.02089,-6.05553 -3.0476,-6.24544 -0.87847,-6.24544 0.92185,0 2.27978,1.63202 3.01767,3.62672 l 1.34162,3.62673 1.15107,-3.62673 c 0.99942,-3.14891 4.17969,-5.22934 4.17969,-2.73423 0,1.37509 -4.86983,10.47359 -5.60582,10.47359 -0.35818,0 -1.80078,-2.30428 -3.20576,-5.12064 z m 16.85683,48.55533 c -0.0403,-1.11631 -1.83403,-5.3177 -3.98594,-9.33643 l -3.91256,-7.30676 -0.0734,9.33642 c -0.0698,8.89595 0.11821,9.33643 3.98596,9.33643 2.23262,0 4.02631,-0.91335 3.98594,-2.02966 z"
       id="path4241"
       inkscape:connector-curvature="0" />
    <text
       sodipodi:linespacing="125%"
       id="text4243"
       y="-243.72917"
       x="-305.30151"
       style="font-style:normal;font-variant:normal;font-weight:normal;font-stretch:normal;font-size:89.8401947px;line-height:125%;font-family:'Times New Roman';-inkscape-font-specification:'Times New Roman';text-align:start;letter-spacing:0px;word-spacing:0px;writing-mode:lr-tb;text-anchor:start;fill:#000000;fill-opacity:1;stroke:none;stroke-width:1px;stroke-linecap:butt;stroke-linejoin:miter;stroke-opacity:1"
       xml:space="preserve"
       transform="scale(1.1058646,0.9042698)"><tspan
         style="font-style:normal;font-variant:normal;font-weight:normal;font-stretch:condensed;font-family:'Abadi MT Condensed Extra Bold';-inkscape-font-specification:'Abadi MT Condensed Extra Bold,  Condensed'"
         y="-243.72917"
         x="-305.30151"
         id="tspan4245"
         sodipodi:role="line">INDEX</tspan></text>
  </g>
</svg>
